<svg id="Component_103_1" data-name="Component 103 – 1" xmlns="http://www.w3.org/2000/svg" width="155.999" height="37" viewBox="0 0 155.999 37">
  <g id="Group_107" data-name="Group 107" transform="translate(-0.382 2.484)">
    <rect id="Rectangle_96" data-name="Rectangle 96" width="2" height="11" rx="1" transform="translate(0.382 9.516)" fill="#f89927"/>
    <rect id="Rectangle_103" data-name="Rectangle 103" width="2" height="26" rx="1" transform="translate(14.382 2.516)" fill="#f89927"/>
    <rect id="Rectangle_99" data-name="Rectangle 99" width="2" height="20" rx="1" transform="translate(7.382 5.516)" fill="#f89927"/>
    <rect id="Rectangle_101" data-name="Rectangle 101" width="1" height="14" rx="0.5" transform="translate(21.382 7.516)" fill="#f89927"/>
    <rect id="Rectangle_97" data-name="Rectangle 97" width="3" height="15" rx="1.5" transform="translate(3.382 7.516)" fill="#f89927"/>
    <rect id="Rectangle_102" data-name="Rectangle 102" width="3" height="20" rx="1.5" transform="translate(17.382 5.516)" fill="#f89927"/>
    <rect id="Rectangle_98" data-name="Rectangle 98" width="3" height="30" rx="1.5" transform="translate(10.382 -0.484)" fill="#f89927"/>
    <rect id="Rectangle_100" data-name="Rectangle 100" width="2" height="9" rx="1" transform="translate(24.382 10.516)" fill="#f89927"/>
  </g>
  <g id="Group_110" data-name="Group 110" transform="translate(68.935 3.361)">
    <rect id="Rectangle_96-2" data-name="Rectangle 96" width="3" height="11" rx="1.5" transform="translate(0.065 9.639)" fill="#f89927"/>
    <rect id="Rectangle_103-2" data-name="Rectangle 103" width="3" height="26" rx="1.5" transform="translate(14.065 1.639)" fill="#f89927"/>
    <rect id="Rectangle_99-2" data-name="Rectangle 99" width="3" height="21" rx="1.5" transform="translate(7.065 4.639)" fill="#f89927"/>
    <rect id="Rectangle_101-2" data-name="Rectangle 101" width="3" height="14" rx="1.5" transform="translate(21.065 7.639)" fill="#f89927"/>
    <rect id="Rectangle_97-2" data-name="Rectangle 97" width="3" height="15" rx="1.5" transform="translate(3.065 6.639)" fill="#f89927"/>
    <rect id="Rectangle_102-2" data-name="Rectangle 102" width="3" height="19" rx="1.5" transform="translate(17.065 5.639)" fill="#f89927"/>
    <rect id="Rectangle_98-2" data-name="Rectangle 98" width="3" height="30" rx="1.5" transform="translate(10.065 -0.361)" fill="#f89927"/>
    <rect id="Rectangle_100-2" data-name="Rectangle 100" width="2" height="10" rx="1" transform="translate(25.065 9.639)" fill="#f89927"/>
  </g>
  <g id="Group_112" data-name="Group 112" transform="translate(118.07 2.484)">
    <rect id="Rectangle_96-3" data-name="Rectangle 96" width="3" height="11" rx="1.5" transform="translate(-0.071 9.516)" fill="#fff"/>
    <rect id="Rectangle_103-3" data-name="Rectangle 103" width="3" height="26" rx="1.5" transform="translate(13.929 2.516)" fill="#fff"/>
    <rect id="Rectangle_99-3" data-name="Rectangle 99" width="3" height="20" rx="1.5" transform="translate(6.929 5.516)" fill="#fff"/>
    <rect id="Rectangle_101-3" data-name="Rectangle 101" width="3" height="14" rx="1.5" transform="translate(20.929 7.516)" fill="#fff"/>
    <rect id="Rectangle_106" data-name="Rectangle 106" width="2" height="14" rx="1" transform="translate(31.929 8.516)" fill="#fff"/>
    <rect id="Rectangle_97-3" data-name="Rectangle 97" width="2" height="15" rx="1" transform="translate(3.929 7.516)" fill="#fff"/>
    <rect id="Rectangle_102-3" data-name="Rectangle 102" width="2" height="20" rx="1" transform="translate(17.929 5.516)" fill="#fff"/>
    <rect id="Rectangle_105" data-name="Rectangle 105" width="3" height="19" rx="1.5" transform="translate(27.929 6.516)" fill="#fff"/>
    <rect id="Rectangle_98-3" data-name="Rectangle 98" width="2" height="30" rx="1" transform="translate(10.929 -0.484)" fill="#fff"/>
    <rect id="Rectangle_100-3" data-name="Rectangle 100" width="2" height="9" rx="1" transform="translate(24.929 10.516)" fill="#fff"/>
    <rect id="Rectangle_107" data-name="Rectangle 107" width="3" height="10" rx="1.5" transform="translate(34.929 10.516)" fill="#fff"/>
  </g>
  <g id="Group_108" data-name="Group 108" transform="translate(27.696 1.607)">
    <rect id="Rectangle_103-4" data-name="Rectangle 103" width="3" height="28" rx="1.5" transform="translate(2.304 2.393)" fill="#f89927"/>
    <rect id="Rectangle_101-4" data-name="Rectangle 101" width="3" height="15" rx="1.5" transform="translate(9.304 8.393)" fill="#f89927"/>
    <rect id="Rectangle_102-4" data-name="Rectangle 102" width="2" height="21" rx="1" transform="translate(6.304 6.393)" fill="#f89927"/>
    <rect id="Rectangle_98-4" data-name="Rectangle 98" width="1" height="32" rx="0.5" transform="translate(0.304 0.393)" fill="#f89927"/>
    <rect id="Rectangle_100-4" data-name="Rectangle 100" width="2" height="10" rx="1" transform="translate(13.304 11.393)" fill="#f89927"/>
    <rect id="Rectangle_104" data-name="Rectangle 104" width="3" height="10" rx="1.5" transform="translate(16.304 11.393)" fill="#f89927"/>
  </g>
  <g id="Group_109" data-name="Group 109" transform="translate(47.876 -0.148)">
    <rect id="Rectangle_103-5" data-name="Rectangle 103" width="3" height="33" rx="1.5" transform="translate(3.123 2.148)" fill="#f89927"/>
    <rect id="Rectangle_101-5" data-name="Rectangle 101" width="3" height="17" rx="1.5" transform="translate(10.123 10.148)" fill="#f89927"/>
    <rect id="Rectangle_102-5" data-name="Rectangle 102" width="3" height="25" rx="1.5" transform="translate(7.123 6.148)" fill="#f89927"/>
    <rect id="Rectangle_98-5" data-name="Rectangle 98" width="3" height="37" rx="1.5" transform="translate(0.123 0.148)" fill="#f89927"/>
    <rect id="Rectangle_100-5" data-name="Rectangle 100" width="3" height="12" rx="1.5" transform="translate(14.123 12.148)" fill="#f89927"/>
    <rect id="Rectangle_104-2" data-name="Rectangle 104" width="3" height="12" rx="1.5" transform="translate(17.123 12.148)" fill="#f89927"/>
  </g>
  <g id="Group_111" data-name="Group 111" transform="translate(97.012 -0.148)">
    <rect id="Rectangle_103-6" data-name="Rectangle 103" width="2" height="33" rx="1" transform="translate(3.988 2.148)" fill="#f89927"/>
    <rect id="Rectangle_101-6" data-name="Rectangle 101" width="2" height="17" rx="1" transform="translate(10.988 10.148)" fill="#f89927"/>
    <rect id="Rectangle_102-6" data-name="Rectangle 102" width="3" height="25" rx="1.5" transform="translate(6.988 6.148)" fill="#f89927"/>
    <rect id="Rectangle_98-6" data-name="Rectangle 98" width="3" height="37" rx="1.5" transform="translate(-0.012 0.148)" fill="#f89927"/>
    <rect id="Rectangle_100-6" data-name="Rectangle 100" width="3" height="12" rx="1.5" transform="translate(13.988 12.148)" fill="#f89927"/>
    <rect id="Rectangle_104-3" data-name="Rectangle 104" width="2" height="12" rx="1" transform="translate(17.988 12.148)" fill="#f89927"/>
  </g>
</svg>
