<svg xmlns="http://www.w3.org/2000/svg" xmlns:xlink="http://www.w3.org/1999/xlink" width="21.323" height="21.327" viewBox="0 0 21.323 21.327">
  <defs>
    <linearGradient id="linear-gradient" x1="0.5" x2="0.5" y2="1" gradientUnits="objectBoundingBox">
      <stop offset="0" stop-color="#ff9200"/>
      <stop offset="1" stop-color="#ff3100"/>
    </linearGradient>
  </defs>
  <path id="Path_14" data-name="Path 14" d="M367.855,104.67c-.241,0-.461,0-.681,0a.771.771,0,0,1-.583-1.341q4.268-4.592,8.531-9.188c.415-.448.829-.9,1.246-1.343a.767.767,0,0,1,1.25.005q4.9,5.273,9.793,10.548a.766.766,0,0,1-.584,1.317c-.221,0-.443,0-.7,0v.405q0,3.914,0,7.828c0,.621-.281.9-.9.9H368.7a.766.766,0,0,1-.841-.841q0-4,0-7.994Zm9.136-10.3-8.165,8.8a.907.907,0,0,1,.558.989c-.011,2.625,0,5.25,0,7.875v.244h3.806v-.413q0-3.533,0-7.066a.779.779,0,0,1,.893-.884h5.8c.636,0,.916.277.916.909q0,3.6,0,7.209v.245H384.6v-.388c0-2.585.005-5.171-.005-7.756a.888.888,0,0,1,.559-.962l-5.754-6.2Zm-2.267,11.074v6.824h4.539v-6.824Z" transform="translate(-366.33 -92.48)" fill="url(#linear-gradient)"/>
</svg>
