<svg id="Group_30" data-name="Group 30" xmlns="http://www.w3.org/2000/svg" xmlns:xlink="http://www.w3.org/1999/xlink" width="22.78" height="16.265" viewBox="0 0 22.78 16.265">
  <defs>
    <linearGradient id="linear-gradient" x1="0.5" x2="0.5" y2="1" gradientUnits="objectBoundingBox">
      <stop offset="0" stop-color="#ff9200"/>
      <stop offset="1" stop-color="#ff3100"/>
    </linearGradient>
  </defs>
  <path id="Path_29" data-name="Path 29" d="M535.452,170.668c.065-.466.158-1.154.256-1.84.2-1.374.374-2.752.6-4.122a7.268,7.268,0,0,1,3.666-5.254,6.972,6.972,0,0,1,3.657-.981c2.194.006,4.389,0,6.583,0a7.486,7.486,0,0,1,7.159,6.162c.291,1.959.606,3.916.835,5.883a3.652,3.652,0,0,1-1.6,3.455,3.756,3.756,0,0,1-5.606-1.3c-.449-.863-.878-1.737-1.305-2.611a.309.309,0,0,0-.327-.2q-2.529.01-5.058,0a.308.308,0,0,0-.325.206c-.424.866-.853,1.731-1.293,2.589a3.9,3.9,0,0,1-4.237,1.988A4.078,4.078,0,0,1,535.452,170.668Zm18.942,2.449a2.123,2.123,0,0,0,2.182-2.573c-.277-1.816-.546-3.634-.779-5.455a5.564,5.564,0,0,0-5.6-4.988q-3.355-.009-6.71,0a5.558,5.558,0,0,0-5.587,4.893c-.257,1.87-.527,3.738-.8,5.606a2.128,2.128,0,0,0,1.373,2.391,2.2,2.2,0,0,0,2.815-1.154c.513-1.021,1.026-2.041,1.531-3.066a.882.882,0,0,1,.867-.539q3.151.008,6.3,0a.939.939,0,0,1,.918.588c.516,1.047,1.029,2.1,1.558,3.136A2.022,2.022,0,0,0,554.395,173.117Z" transform="translate(-535.452 -158.47)" fill="url(#linear-gradient)"/>
  <path id="Path_30" data-name="Path 30" d="M633.119,225.795c-.277,0-.529,0-.781,0a.813.813,0,1,1,0-1.625c.252,0,.5,0,.785,0,0-.273,0-.524,0-.776a.814.814,0,1,1,1.625.01c0,.244,0,.489,0,.765h.744a.816.816,0,1,1,0,1.627c-.236,0-.473,0-.747,0,0,.263,0,.513,0,.764a.815.815,0,1,1-1.627-.011C633.118,226.31,633.119,226.073,633.119,225.795Z" transform="translate(-626.612 -219.284)" fill="url(#linear-gradient)"/>
  <path id="Path_31" data-name="Path 31" d="M823.533,223.354a.813.813,0,1,1,.8.813A.814.814,0,0,1,823.533,223.354Z" transform="translate(-808.89 -219.284)" fill="url(#linear-gradient)"/>
  <path id="Path_32" data-name="Path 32" d="M793.153,255.369a.813.813,0,1,1-.8-.817A.815.815,0,0,1,793.153,255.369Z" transform="translate(-778.51 -249.668)" fill="url(#linear-gradient)"/>
  <path id="Path_33" data-name="Path 33" d="M857.147,255.354a.814.814,0,1,1-.792-.823A.812.812,0,0,1,857.147,255.354Z" transform="translate(-839.251 -249.649)" fill="url(#linear-gradient)"/>
  <path id="Path_34" data-name="Path 34" d="M824.328,288.176a.814.814,0,1,1,.812-.8A.816.816,0,0,1,824.328,288.176Z" transform="translate(-808.871 -280.039)" fill="url(#linear-gradient)"/>
</svg>
