<svg id="Group_31" data-name="Group 31" xmlns="http://www.w3.org/2000/svg" xmlns:xlink="http://www.w3.org/1999/xlink" width="20.631" height="20.048" viewBox="0 0 20.631 20.048">
  <defs>
    <linearGradient id="linear-gradient" x1="0.5" x2="0.5" y2="1" gradientUnits="objectBoundingBox">
      <stop offset="0" stop-color="#ff9200"/>
      <stop offset="1" stop-color="#ff3100"/>
    </linearGradient>
  </defs>
  <path id="Path_35" data-name="Path 35" d="M426.7,165.418c-2.19.156-4.189.3-6.188.442-.458.033-.915.094-1.374.116a2.954,2.954,0,0,1-1.7-.353,1.626,1.626,0,0,1-.745-1.842c.081-.351.24-.683.355-1.026a.482.482,0,0,0,.024-.269q-1.024-3.466-2.059-6.929-.537-1.805-1.071-3.611a.188.188,0,0,0-.219-.166c-.593.008-1.187,0-1.78,0a.864.864,0,1,1-.012-1.727q1.275-.006,2.55,0a.866.866,0,0,1,.9.673c.218.727.437,1.453.649,2.182a.171.171,0,0,0,.2.15q4.354-.005,8.708,0,2.895,0,5.789,0a.868.868,0,0,1,.918,1.13q-.285,1.488-.575,2.975-.427,2.211-.854,4.422a.852.852,0,0,1-.774.74q-2.411.3-4.822.586l-5.968.724a1.75,1.75,0,0,1-.318.034c-.182-.012-.235.092-.273.241-.111.431-.015.613.431.654a7.334,7.334,0,0,0,1.165,0c1.893-.129,3.784-.291,5.678-.4,1.232-.07,2.467-.068,3.7-.1a1.92,1.92,0,0,1,.288.015.68.68,0,0,1-.065,1.354c-.213.005-.427-.015-.641-.016C427.906,165.417,427.206,165.418,426.7,165.418ZM420.836,154.8H416.6c.01.049.016.086.026.121.248.84.5,1.68.744,2.521a.146.146,0,0,0,.17.121c1.058,0,2.117,0,3.175,0a1.1,1.1,0,0,0,.124-.014Zm.839,6.712a.374.374,0,0,0,.053,0c1.119-.135,2.238-.271,3.358-.4.127-.015.123-.085.123-.176q0-1.146,0-2.292c0-.083-.007-.167-.011-.254h-3.525ZM425.2,154.8H421.68v2.746H425.2Zm.838-.006v2.751a.626.626,0,0,0,.075.01c1,0,2,0,3,0,.1,0,.119-.054.135-.135.1-.524.2-1.048.3-1.572.067-.349.131-.7.2-1.059Zm-8.376,3.593a.786.786,0,0,0,.014.079q.489,1.651.977,3.3c.03.1.082.114.176.1.323-.044.647-.078.97-.118.343-.042.685-.086,1.03-.129v-3.235Zm8.373,0v2.594a.82.82,0,0,0,.088,0c.795-.1,1.589-.194,2.385-.285.1-.012.118-.064.132-.144.067-.362.138-.723.207-1.085l.208-1.08Z" transform="translate(-411.027 -150.052)" fill="url(#linear-gradient)"/>
  <path id="Path_36" data-name="Path 36" d="M575.762,670.847a1.726,1.726,0,1,1,1.743-1.7A1.73,1.73,0,0,1,575.762,670.847Z" transform="translate(-568.822 -650.8)" fill="url(#linear-gradient)"/>
  <path id="Path_37" data-name="Path 37" d="M881.959,667.5a1.725,1.725,0,1,1-1.722,1.723A1.717,1.717,0,0,1,881.959,667.5Z" transform="translate(-865.186 -650.898)" fill="url(#linear-gradient)"/>
</svg>
