<svg xmlns="http://www.w3.org/2000/svg" xmlns:xlink="http://www.w3.org/1999/xlink" width="20.837" height="19.75" viewBox="0 0 20.837 19.75">
  <defs>
    <linearGradient id="linear-gradient" x1="0.5" x2="0.5" y2="1" gradientUnits="objectBoundingBox">
      <stop offset="0" stop-color="#ff9200"/>
      <stop offset="1" stop-color="#ff3100"/>
    </linearGradient>
  </defs>
  <path id="Path_27" data-name="Path 27" d="M706.159,154.135c.081.007.138.017.195.017.749,0,1.5.008,2.247,0a1.675,1.675,0,0,0,1.728-1.746q.006-3.547,0-7.093a1.684,1.684,0,0,0-1.771-1.774q-5.066-.008-10.133,0a1.687,1.687,0,0,0-1.783,1.654,1.026,1.026,0,0,1-.029.217.492.492,0,0,1-.959-.174,2.684,2.684,0,0,1,2.184-2.639,3.485,3.485,0,0,1,.591-.047q5.055,0,10.111,0a2.68,2.68,0,0,1,2.741,2.25,3.118,3.118,0,0,1,.038.548q0,3.5,0,7a2.677,2.677,0,0,1-2.1,2.73,3.149,3.149,0,0,1-.676.069c-.712.009-1.424,0-2.137,0h-.243c0,.361,0,.7,0,1.047a3.469,3.469,0,0,1-.181,1.43,2.628,2.628,0,0,1-2.353,1.713,9.642,9.642,0,0,1-1.123.008c-.2-.008-.279.051-.32.249-.151.732-.324,1.46-.48,2.191a.555.555,0,0,1-.386.487.549.549,0,0,1-.577-.231c-.754-.842-1.514-1.68-2.266-2.525a.453.453,0,0,0-.377-.17q-2.412.009-4.824,0a2.692,2.692,0,0,1-2.769-2.642c-.02-2.438-.033-4.876,0-7.313a2.638,2.638,0,0,1,2.7-2.649q5.121-.024,10.243,0a2.668,2.668,0,0,1,2.712,2.734c.011,1.461,0,4.384,0,4.384Zm-5.253,6.6c.023-.079.035-.112.042-.146q.2-.88.394-1.759a.507.507,0,0,1,.586-.467c.477,0,.954,0,1.432,0a1.7,1.7,0,0,0,1.81-1.8c0-.638-.013-1.277-.013-1.915,0-1.71.014-3.42.012-5.131a1.68,1.68,0,0,0-1.774-1.767q-5.065,0-10.131,0a1.684,1.684,0,0,0-1.783,1.781q0,3.524,0,7.048a2.169,2.169,0,0,0,.067.543,1.669,1.669,0,0,0,1.689,1.245q2.6.005,5.2,0a.666.666,0,0,1,.557.25c.15.181.312.351.469.526Z" transform="translate(-690.483 -142.544)" fill="url(#linear-gradient)"/>
</svg>
