<?xml version="1.0" standalone="no"?>
<!DOCTYPE svg PUBLIC "-//W3C//DTD SVG 20010904//EN"
 "http://www.w3.org/TR/2001/REC-SVG-20010904/DTD/svg10.dtd">
<svg version="1.0" xmlns="http://www.w3.org/2000/svg"
 width="256.000000pt" height="256.000000pt" viewBox="0 0 256.000000 256.000000"
 preserveAspectRatio="xMidYMid meet">

<g transform="translate(0.000000,256.000000) scale(0.100000,-0.100000)"
fill="#000000" stroke="none">
<path d="M1180 2401 c0 -5 -8 -8 -17 -6 -10 1 -24 -3 -32 -9 -12 -9 -13 -8 -6
4 6 12 5 13 -6 3 -7 -7 -17 -13 -22 -13 -4 0 -5 6 -1 13 6 9 4 9 -7 1 -8 -6
-24 -10 -36 -9 -12 1 -20 -2 -18 -6 3 -4 -2 -12 -10 -19 -13 -11 -14 -10 -9 5
6 14 4 16 -7 9 -14 -9 -34 -14 -56 -16 -7 -1 -13 -5 -13 -10 0 -4 -3 -7 -7 -7
-26 4 -45 -3 -40 -14 4 -10 -2 -13 -21 -9 -25 5 -26 4 -12 -14 13 -17 13 -17
-9 1 -14 11 -21 14 -16 6 6 -11 4 -13 -8 -8 -10 4 -17 2 -17 -4 0 -6 -8 -8
-17 -5 -10 4 -15 4 -11 1 3 -4 -1 -15 -10 -25 -13 -16 -19 -17 -31 -7 -12 9
-13 9 -7 0 4 -7 2 -14 -3 -14 -21 -3 -26 -5 -59 -26 -18 -11 -34 -25 -35 -29
-1 -5 -6 -8 -10 -6 -4 1 -10 -5 -13 -13 -4 -8 -15 -15 -26 -15 -13 0 -18 -5
-15 -14 8 -20 -4 -28 -20 -15 -10 9 -13 7 -13 -10 0 -15 -6 -21 -22 -21 -19 0
-20 -2 -8 -10 13 -9 13 -10 0 -11 -8 -1 -18 -1 -22 0 -4 0 -5 -9 -3 -20 3 -16
1 -18 -8 -10 -9 7 -17 4 -27 -12 -8 -12 -13 -26 -12 -31 2 -5 -4 -6 -13 -2 -9
3 -13 2 -10 -4 3 -6 -1 -13 -10 -16 -13 -6 -14 -8 -3 -15 10 -7 9 -9 -5 -9
-10 0 -15 -4 -12 -10 3 -5 -1 -10 -11 -10 -14 0 -14 -3 -4 -15 11 -13 10 -14
-5 -9 -13 5 -16 4 -11 -4 4 -7 1 -12 -10 -12 -13 0 -14 -3 -5 -14 13 -16 -2
-32 -19 -21 -6 4 -10 3 -9 -2 4 -24 -2 -43 -13 -37 -7 5 -8 3 -3 -6 4 -7 3
-15 -3 -19 -6 -3 -12 -13 -14 -21 -2 -8 -9 -21 -15 -28 -10 -10 -10 -18 -1
-35 11 -21 10 -21 -7 -7 -11 9 -16 10 -11 3 4 -8 2 -13 -4 -13 -6 0 -8 -4 -5
-10 3 -5 0 -10 -7 -10 -9 0 -9 -3 2 -10 12 -8 12 -10 1 -10 -11 0 -11 -3 0
-17 12 -14 12 -16 0 -8 -11 6 -13 4 -8 -8 3 -9 1 -19 -5 -23 -7 -5 -8 -2 -4 7
4 8 1 5 -8 -5 -8 -10 -13 -23 -9 -29 3 -5 -1 -13 -8 -18 -9 -6 -10 -12 -4 -16
17 -13 16 -33 -1 -26 -14 5 -15 3 -4 -17 8 -15 8 -20 1 -16 -6 4 -11 3 -11 -3
0 -5 5 -13 12 -17 7 -5 5 -11 -7 -21 -14 -10 -15 -13 -4 -14 8 0 6 -4 -6 -9
-11 -5 -14 -9 -7 -9 6 -1 12 -8 12 -17 0 -8 -4 -13 -8 -10 -4 2 -8 -8 -7 -22
0 -15 7 -30 15 -34 10 -4 7 -7 -10 -7 -14 -1 -20 -5 -15 -9 12 -8 13 -41 2
-59 -4 -6 -3 -14 2 -17 5 -4 8 -14 7 -23 -2 -10 8 -26 21 -36 23 -19 23 -32 0
-32 -7 -1 -16 4 -20 10 -5 5 -6 1 -1 -10 4 -11 7 -28 8 -37 0 -9 5 -14 10 -11
5 4 7 -1 3 -10 -4 -10 -1 -17 6 -18 7 0 3 -4 -8 -9 -15 -7 -16 -9 -4 -9 25 -1
40 -24 27 -41 -8 -12 -9 -12 -4 2 3 10 1 20 -4 23 -11 7 -4 -66 7 -74 16 -10
23 -41 11 -41 -7 0 -3 -6 7 -14 11 -8 16 -19 12 -30 -4 -10 -3 -15 3 -11 6 3
10 -3 10 -14 0 -12 5 -21 11 -21 6 0 9 -9 6 -20 -4 -14 0 -20 11 -20 15 0 15
-2 2 -10 -13 -8 -13 -10 3 -11 31 -3 35 -4 44 -12 4 -5 1 -7 -7 -5 -8 2 -14
-3 -12 -10 1 -8 -2 -11 -8 -7 -5 3 -10 2 -10 -3 0 -6 7 -12 15 -16 8 -3 15
-12 15 -21 0 -8 5 -15 10 -15 7 0 7 6 0 19 -7 13 -7 22 0 26 5 3 10 5 11 3 0
-2 2 -20 4 -40 2 -27 -1 -36 -9 -31 -6 3 -2 -3 8 -15 11 -12 22 -20 25 -17 3
4 -1 11 -9 16 -13 9 -13 10 0 6 8 -2 15 -13 14 -25 0 -12 4 -18 9 -15 6 4 8 0
4 -9 -4 -11 -1 -14 12 -11 13 3 20 -2 24 -17 4 -15 10 -19 19 -15 10 6 11 5 0
-6 -17 -19 -15 -29 6 -22 9 3 14 3 10 -2 -4 -4 0 -14 10 -22 11 -9 12 -12 2
-8 -8 4 1 -8 20 -28 27 -27 39 -33 53 -25 9 5 17 5 16 1 -4 -21 3 -31 22 -36
14 -4 20 -11 16 -20 -8 -21 2 -28 23 -17 22 12 33 1 18 -17 -6 -7 -8 -16 -4
-20 3 -3 6 -1 6 5 0 20 16 14 29 -10 9 -18 10 -19 6 -3 -6 20 -6 20 13 0 11
-11 18 -23 15 -27 -2 -5 1 -8 6 -8 14 0 14 13 1 26 -7 7 -2 10 15 10 17 0 22
-3 15 -10 -14 -14 -12 -26 5 -26 8 0 15 -8 15 -17 0 -14 2 -15 9 -4 7 11 10 9
16 -8 4 -13 9 -20 12 -17 4 3 12 1 20 -6 7 -6 16 -8 20 -4 3 3 1 6 -5 6 -7 0
-12 6 -12 12 0 7 11 0 25 -15 28 -30 44 -33 64 -14 11 10 13 10 7 0 -4 -8 -1
-13 8 -13 9 0 16 -5 16 -11 0 -5 5 -7 10 -4 5 3 10 2 10 -4 0 -6 13 -9 30 -7
16 2 28 1 26 -3 -2 -3 3 -13 12 -21 14 -13 15 -12 9 2 -4 12 -1 16 15 15 12
-1 23 -9 25 -18 4 -16 7 -15 25 3 13 13 23 16 31 10 7 -5 20 -8 30 -7 9 2 17
-1 17 -7 0 -6 -7 -8 -14 -5 -10 4 -13 1 -10 -7 5 -14 34 -18 34 -4 0 5 12 1
28 -9 l27 -17 -19 22 c-11 12 -16 25 -13 29 4 3 7 0 7 -8 0 -11 2 -11 10 1 8
13 10 12 10 -3 0 -10 5 -15 10 -12 5 3 10 -2 10 -12 0 -14 2 -15 9 -5 11 19
15 19 33 4 13 -10 17 -10 22 4 3 9 12 14 20 11 7 -3 25 1 39 8 23 11 28 11 43
-6 12 -14 21 -16 35 -9 10 6 22 10 26 9 19 -3 33 2 33 12 0 8 -6 7 -17 -2 -15
-11 -16 -11 -6 1 19 21 46 22 39 2 -5 -15 -4 -15 8 1 7 9 22 17 32 16 18 0 18
-1 -1 -9 -18 -8 -17 -9 7 -9 19 -1 26 3 22 13 -4 9 2 13 20 11 15 -2 24 0 21
5 -3 4 2 10 10 13 10 4 12 1 9 -11 -5 -16 -5 -16 5 0 7 10 20 14 33 12 l23 -5
-22 10 c-13 6 -23 12 -23 15 0 6 37 -1 52 -10 7 -5 8 -3 3 6 -5 9 -2 10 14 5
16 -5 23 -1 31 19 5 14 15 26 22 26 9 0 8 -3 -2 -10 -13 -8 -12 -10 3 -10 10
0 17 7 17 18 0 13 2 14 9 4 7 -11 9 -11 14 2 4 9 12 14 19 12 7 -1 10 -1 6 1
-5 3 -8 9 -8 14 0 11 22 7 33 -6 4 -5 7 1 5 15 -2 14 2 25 10 26 6 1 19 2 28
3 8 0 12 6 9 11 -4 6 -11 7 -17 4 -7 -4 -8 -2 -4 5 4 6 11 9 16 6 5 -3 12 -1
15 5 5 8 11 7 21 -1 12 -10 17 -9 27 0 9 10 8 11 -8 6 -11 -3 -5 2 13 10 17 8
32 18 32 21 0 3 -6 2 -12 -2 -10 -6 -10 -5 -1 8 7 8 11 17 8 19 -2 3 8 6 23 7
36 3 49 18 35 41 -9 14 -8 18 3 18 7 0 11 -4 9 -8 -3 -4 1 -9 8 -12 12 -4 15
5 19 50 1 7 5 10 9 7 10 -6 65 45 61 57 -1 5 6 9 15 10 15 0 15 2 -2 9 -19 8
-19 9 -1 9 16 1 16 3 6 17 -11 12 -11 15 1 12 8 -2 17 -7 21 -13 5 -6 8 -3 8
7 0 9 6 19 13 22 6 3 0 3 -15 1 -15 -2 -30 0 -33 4 -2 5 3 8 13 8 48 0 57 3
42 13 -12 8 -11 10 8 10 12 0 22 5 22 11 0 5 -6 7 -12 3 -7 -5 -1 8 15 28 15
20 27 43 27 51 0 8 6 20 14 27 8 6 12 19 9 27 -4 9 -2 14 3 10 6 -3 11 3 11
14 2 17 -1 18 -13 8 -11 -9 -10 -4 3 19 10 17 21 28 25 26 3 -2 10 1 14 7 4 8
3 9 -4 5 -16 -10 -15 3 3 38 8 15 12 32 9 37 -3 6 -1 15 4 22 16 19 16 21 2
47 -12 22 -12 24 3 12 13 -11 15 -11 13 1 -1 8 -8 23 -16 33 -8 10 -10 15 -4
11 7 -4 18 1 25 10 12 15 12 16 -6 10 -17 -6 -18 -5 -5 5 17 15 23 48 8 48 -5
0 -6 5 -3 10 4 6 11 7 17 4 6 -4 6 2 -1 15 -7 11 -9 21 -7 21 3 0 1 11 -4 24
-5 13 -6 27 -3 30 9 8 10 56 2 56 -13 0 -18 44 -6 52 9 6 9 8 -1 8 -7 0 -11 4
-7 9 3 5 1 12 -5 16 -16 10 -12 25 8 26 14 0 14 2 -3 9 -13 6 -15 9 -5 9 10 1
11 4 4 9 -6 4 -10 15 -8 25 1 9 -2 15 -7 11 -5 -3 -9 0 -9 6 0 6 -5 8 -12 4
-7 -4 -8 -3 -4 5 4 6 11 9 15 7 4 -3 8 2 8 10 0 8 -6 13 -14 10 -11 -4 -11 -1
-3 14 8 15 8 20 -1 20 -6 0 -9 7 -5 15 3 8 1 15 -5 15 -6 0 -8 4 -4 9 3 5 1
12 -5 16 -6 4 -8 11 -5 16 4 5 1 9 -6 9 -7 0 -9 3 -6 7 4 3 2 12 -4 20 -6 7
-8 13 -5 13 4 0 1 6 -6 14 -7 8 -17 11 -23 8 -5 -3 -4 2 4 11 7 9 9 17 3 17
-5 0 -12 9 -15 21 -4 14 -10 18 -19 13 -11 -6 -11 -5 0 8 10 12 10 18 -2 28
-9 6 -21 8 -28 4 -10 -6 -9 -3 1 9 12 15 11 17 -5 17 -16 0 -17 2 -4 10 13 8
12 10 -3 10 -10 0 -15 5 -12 10 3 6 1 10 -5 10 -7 0 -10 6 -7 14 4 10 -1 12
-16 9 -17 -4 -19 -3 -7 6 12 9 12 11 -3 17 -9 3 -14 10 -11 15 3 5 -2 9 -11 9
-9 0 -14 3 -12 8 2 4 -8 18 -21 32 -14 14 -22 20 -18 13 3 -6 2 -14 -3 -17 -5
-4 -8 5 -6 20 2 18 -2 24 -11 20 -8 -3 -13 0 -11 7 1 7 -7 12 -18 12 -13 0
-19 7 -19 18 1 9 -5 17 -13 17 -8 0 -11 5 -8 10 3 6 -3 10 -14 10 -12 0 -21 5
-21 11 0 5 -5 7 -12 3 -8 -5 -9 -2 -5 10 5 14 3 17 -8 12 -8 -3 -14 0 -12 7 1
7 -6 11 -18 9 -11 -2 -17 -1 -13 3 8 9 -14 35 -24 28 -5 -2 -8 1 -8 8 0 7 -3
9 -7 6 -3 -4 -13 -1 -21 6 -9 6 -13 7 -9 1 3 -6 0 -11 -7 -11 -8 0 -11 8 -8
21 5 20 5 20 -20 4 -24 -16 -25 -16 -24 5 1 13 -4 21 -12 19 -7 -1 -15 4 -18
12 -3 8 -12 12 -20 9 -7 -3 -20 2 -29 11 -9 8 -23 12 -32 9 -12 -5 -14 -3 -8
8 4 8 5 11 0 7 -4 -4 -14 -3 -22 3 -7 6 -13 8 -13 4 0 -4 -8 -1 -17 6 -15 12
-16 12 -8 -1 7 -12 6 -13 -6 -4 -25 19 -52 26 -46 11 3 -8 -1 -14 -8 -14 -7 0
-12 8 -10 17 2 12 -3 16 -18 14 -12 -1 -23 -3 -24 -4 -2 -2 -11 -3 -20 -4 -10
-1 -23 -5 -30 -9 -6 -4 -15 -3 -18 3 -4 6 -1 9 6 8 6 -2 14 3 16 10 3 7 -1 10
-11 6 -8 -3 -21 -2 -28 2 -19 12 -48 12 -48 0 0 -6 -5 -4 -10 4 -9 13 -10 13
-10 0 0 -9 -3 -11 -8 -5 -11 15 -46 19 -36 4 4 -7 3 -10 -3 -6 -18 11 -63 16
-68 6 -4 -5 -14 -5 -26 1 -11 7 -19 7 -19 1z m-346 -687 c3 -8 2 -12 -4 -9 -6
3 -10 10 -10 16 0 14 7 11 14 -7z m77 -1 c13 -16 12 -17 -3 -4 -10 7 -18 15
-18 17 0 8 8 3 21 -13z m40 0 c13 -16 12 -17 -3 -4 -10 7 -18 15 -18 17 0 8 8
3 21 -13z m119 3 c0 -2 -8 -10 -17 -17 -16 -13 -17 -12 -4 4 13 16 21 21 21
13z m-280 -20 c0 -2 -8 -10 -17 -17 -16 -13 -17 -12 -4 4 13 16 21 21 21 13z
m76 -48 l19 -23 -25 20 c-14 11 -27 21 -29 22 -2 2 0 3 6 3 5 0 18 -10 29 -22z
m-52 -7 c14 -15 15 -21 4 -27 -7 -4 -10 -3 -5 1 4 5 0 17 -10 27 -9 10 -14 18
-11 18 3 0 13 -9 22 -19z m-30 -9 c3 -5 -1 -9 -9 -9 -8 0 -12 4 -9 9 3 4 7 8
9 8 2 0 6 -4 9 -8z m136 5 c0 -2 -10 -12 -22 -23 l-23 -19 19 23 c18 21 26 27
26 19z m-65 -16 c3 -5 2 -12 -3 -15 -5 -3 -9 1 -9 9 0 17 3 19 12 6z m-110
-11 c3 -6 -1 -7 -9 -4 -18 7 -21 14 -7 14 6 0 13 -4 16 -10z m-60 -19 c3 -5 2
-12 -3 -15 -5 -3 -9 1 -9 9 0 17 3 19 12 6z m105 5 c0 -2 -7 -7 -16 -10 -8 -3
-12 -2 -9 4 6 10 25 14 25 6z m29 -70 c-2 -2 -13 8 -23 22 l-19 27 24 -22 c12
-12 21 -24 18 -27z m22 27 c13 -16 12 -17 -3 -4 -10 7 -18 15 -18 17 0 8 8 3
21 -13z m-100 -10 c13 -16 12 -17 -3 -4 -10 7 -18 15 -18 17 0 8 8 3 21 -13z
m-73 -48 c-3 -3 -9 2 -12 12 -6 14 -5 15 5 6 7 -7 10 -15 7 -18z m46 -1 c3 -8
2 -12 -4 -9 -6 3 -10 10 -10 16 0 14 7 11 14 -7z m217 -21 c13 -16 12 -17 -3
-4 -10 7 -18 15 -18 17 0 8 8 3 21 -13z m-291 -17 c0 -2 -8 -10 -17 -17 -16
-13 -17 -12 -4 4 13 16 21 21 21 13z m171 -33 c13 -16 12 -17 -3 -4 -17 13
-22 21 -14 21 2 0 10 -8 17 -17z m-21 -17 c0 -2 -8 -10 -17 -17 -16 -13 -17
-12 -4 4 13 16 21 21 21 13z m-145 -36 c3 -6 -1 -7 -9 -4 -18 7 -21 14 -7 14
6 0 13 -4 16 -10z m-469 -103 c0 -13 -6 -24 -13 -24 -6 0 -9 5 -5 11 4 6 7 14
8 19 5 26 10 23 10 -6z m594 9 c0 -2 -8 -10 -17 -17 -16 -13 -17 -12 -4 4 13
16 21 21 21 13z m51 -13 c13 -16 12 -17 -3 -4 -10 7 -18 15 -18 17 0 8 8 3 21
-13z m-40 -60 c13 -16 12 -17 -3 -4 -10 7 -18 15 -18 17 0 8 8 3 21 -13z
m1614 -132 c3 -5 2 -12 -3 -15 -5 -3 -9 1 -9 9 0 17 3 19 12 6z m-2171 -89 c3
-5 -1 -9 -9 -9 -8 0 -12 4 -9 9 3 4 7 8 9 8 2 0 6 -4 9 -8z m1961 -403 c-4 -5
-12 -9 -18 -8 -9 0 -8 2 1 6 6 2 9 10 6 15 -4 7 -2 8 5 4 6 -4 9 -12 6 -17z
m-1684 -109 c6 0 7 6 3 13 -4 6 -3 8 1 4 5 -4 10 -14 11 -22 2 -12 -2 -12 -17
-5 -10 6 -19 16 -18 23 0 9 2 9 6 0 2 -7 9 -13 14 -13z m1259 -230 c0 -5 -5
-10 -11 -10 -5 0 -7 5 -4 10 3 6 8 10 11 10 2 0 4 -4 4 -10z m-453 -80 c1 -14
-4 -19 -17 -17 -11 2 -23 7 -27 12 -5 4 -3 5 3 2 7 -4 17 0 24 8 16 19 15 19
17 -5z m153 -4 c0 -2 -7 -6 -15 -10 -8 -3 -15 -1 -15 4 0 6 7 10 15 10 8 0 15
-2 15 -4z"/>
<path d="M1466 2392 c-3 -5 1 -9 9 -9 8 0 12 4 9 9 -3 4 -7 8 -9 8 -2 0 -6 -4
-9 -8z"/>
<path d="M160 1176 c0 -2 8 -10 18 -17 15 -13 16 -12 3 4 -13 16 -21 21 -21
13z"/>
<path d="M558 393 c7 -3 16 -2 19 1 4 3 -2 6 -13 5 -11 0 -14 -3 -6 -6z"/>
<path d="M898 193 c7 -3 16 -2 19 1 4 3 -2 6 -13 5 -11 0 -14 -3 -6 -6z"/>
<path d="M1045 161 c-3 -5 -2 -12 3 -15 5 -3 9 1 9 9 0 17 -3 19 -12 6z"/>
<path d="M1100 159 c-12 -9 -12 -10 4 -5 13 4 17 2 13 -7 -3 -8 1 -14 8 -14
10 0 11 5 4 19 -11 21 -10 21 -29 7z"/>
<path d="M1384 149 c-4 -7 -3 -9 4 -5 5 3 13 0 15 -6 4 -9 6 -10 6 -1 1 17
-16 25 -25 12z"/>
</g>
</svg>
