<?xml version="1.0" encoding="utf-8"?>
<!-- Generator: Adobe Illustrator 19.0.0, SVG Export Plug-In . SVG Version: 6.00 Build 0)  -->
<svg version="1.1" id="Layer_1" xmlns="http://www.w3.org/2000/svg" xmlns:xlink="http://www.w3.org/1999/xlink" x="0px" y="0px"
	 viewBox="0 0 96 96" style="enable-background:new 0 0 96 96;" xml:space="preserve">
<style type="text/css">
	.st0{fill:#333333;}
</style>
<g id="XMLID_1_">
	<path id="XMLID_10_" class="st0" d="M75.6,30.5h-6.9c1-1.7,1.7-3.3,1.8-4.6c0.3-3.3-0.6-6.1-2.6-8.1c-1.8-1.9-4.1-2.4-6.8-2.4h-0.6
		c-2.6,0.1-5.6,1.3-7.6,2.9c-2.1,1.7-3.7,3.6-4.9,6c-1.2-2.4-2.8-4.4-4.9-6c-2.1-1.6-5-2.9-7.6-2.9h-0.1c-2.8,0-5.3,0.4-7.2,2.4
		c-2.1,1.9-2.9,4.7-2.6,8.1c0.1,1.2,0.8,2.9,1.8,4.6h-6.9c-2.8,0-5,2.2-5,5v15h5v25c0,2.8,2.2,5,5,5h45c2.8,0,5-2.2,5-5v-25h5v-15
		c0-2.8-2.2-5-5-5H75.6z M51.7,26.1c0.8-1.8,2.1-3.3,3.8-4.6c1.5-1.1,3.6-1.9,5.3-2.1h0.4c2.2,0,3.3,0.6,4,1.3s1.7,1.9,1.5,4.8
		c-0.3,0.9-1.3,3.1-2.5,5H49.7L51.7,26.1L51.7,26.1z M31.1,20.7c0.7-0.6,1.5-1.3,4.6-1.3c1.5,0,3.6,0.9,5.1,2.1
		c1.7,1.3,2.9,2.8,3.8,4.6l2.1,4.4H32.1c-1.3-1.9-2.2-4-2.5-5C29.5,22.7,30.4,21.5,31.1,20.7L31.1,20.7z M45.6,75.5h-20v-25h20V75.5
		L45.6,75.5z M45.6,45.5h-25v-10h25V45.5L45.6,45.5z M70.6,75.5h-20v-25h20V75.5L70.6,75.5z M75.6,45.5h-25v-10h25V45.5L75.6,45.5z"
		/>
</g>
</svg>
