<svg xmlns="http://www.w3.org/2000/svg" width="39.218" height="39.218" viewBox="0 0 39.218 39.218">
  <g id="Group_222" data-name="Group 222" transform="translate(0 0)">
    <path id="Path_893" data-name="Path 893" d="M-240.213,362.268a24.156,24.156,0,0,1,.97-2.85,8.015,8.015,0,0,1,1.475-2.131c2.882-2.947,5.779-5.881,8.74-8.748a8.87,8.87,0,0,1,12.3.129l-2.449,2.358a17.315,17.315,0,0,0-2.52-1.123,4.833,4.833,0,0,0-4.893,1.287q-4.3,4.2-8.5,8.493a5.319,5.319,0,0,0,0,7.458,5.319,5.319,0,0,0,7.587.106c1.859-1.793,3.669-3.637,5.5-5.458.018-.017.052-.017.087-.028l2.454,2.6c-.569.554-1.232,1.191-1.885,1.837-.887.878-1.814,1.722-2.639,2.656a10.643,10.643,0,0,1-6.118,3.527h-2.266a4.265,4.265,0,0,0-.479-.16,8.825,8.825,0,0,1-6.937-6.116c-.177-.511-.287-1.045-.428-1.569Z" transform="translate(240.213 -333.159)" fill="#fff"/>
    <path id="Path_894" data-name="Path 894" d="M-126.5,281.668a15.292,15.292,0,0,1-.8,2.641,11.04,11.04,0,0,1-1.846,2.708q-4.176,4.32-8.489,8.507a8.908,8.908,0,0,1-12.222.095,1.3,1.3,0,0,1-.136-.166l2.54-2.456a5.573,5.573,0,0,0,3.636,1.4,5.04,5.04,0,0,0,3.633-1.417c2.893-2.854,5.789-5.706,8.617-8.623a5.3,5.3,0,0,0-.128-7.452,5.326,5.326,0,0,0-7.524-.034c-1.862,1.825-3.684,3.69-5.53,5.543l-2.523-2.6c1.471-1.468,3-2.968,4.495-4.493a10.867,10.867,0,0,1,3.708-2.821c.8-.309,1.638-.514,2.459-.767h2.092a1.59,1.59,0,0,0,.316.127,8.748,8.748,0,0,1,7.445,6.8c.1.359.172.725.257,1.087Z" transform="translate(165.721 -271.733)" fill="#fff"/>
  </g>
</svg>
