<svg xmlns="http://www.w3.org/2000/svg" width="42.631" height="34.678" viewBox="0 0 42.631 34.678">
  <g id="Group_219" data-name="Group 219" transform="translate(0 0)">
    <path id="Path_877" data-name="Path 877" d="M-352.5,288.112q7.83,0,15.66.006a5.9,5.9,0,0,1,1.493.15,3.084,3.084,0,0,1,2.227,3.009q.019,12.355,0,24.711a3.147,3.147,0,0,1-3.12,3.192c-.191.009-.383,0-.575,0h-31.463c-2.472,0-3.7-1.228-3.7-3.71q0-11.817,0-23.633c0-2.536,1.2-3.729,3.749-3.729Q-360.362,288.11-352.5,288.112Zm-.1,28.537h15.8c1.043,0,1.2-.159,1.2-1.2q0-11.78,0-23.56c0-1.093-.164-1.257-1.236-1.257h-31.461c-1.028,0-1.2.173-1.2,1.216q0,11.816,0,23.632c0,1.009.165,1.173,1.16,1.174Z" transform="translate(371.978 -288.111)" fill="#fff"/>
    <path id="Path_878" data-name="Path 878" d="M-305.717,316.992a3.082,3.082,0,0,1,3.028,3.337c.011,4.956,0,9.912,0,14.868q0,4.381,0,8.763c0,2.326-1.229,3.559-3.533,3.559q-15.586,0-31.172,0a3.185,3.185,0,0,1-3.293-2.15,6.788,6.788,0,0,1-.155-.824c.768,0,1.582-.237,2.127.045,1.581.819,3.214.343,4.814.432,1.623.09,3.255.02,4.883.02h22.41c1.43,0,1.471-.04,1.471-1.436q0-11.384,0-22.769c0-.516.117-1.075-.483-1.4-.07-.038-.092-.212-.093-.323C-305.722,318.424-305.717,317.732-305.717,316.992Z" transform="translate(345.314 -312.842)" fill="#fff"/>
    <path id="Path_879" data-name="Path 879" d="M-335.751,364.1c0-1.233-.009-2.4.01-3.571a.8.8,0,0,1,.227-.5c2.031-2.062,4.072-4.114,6.172-6.23l3.222,3.319,10.362-10.462c.272.251.449.4.614.569,2.474,2.467,4.952,4.93,7.408,7.415a1.478,1.478,0,0,1,.436.9c.034,2.68.02,5.36.017,8.04a5.076,5.076,0,0,1-.054.513Z" transform="translate(340.958 -338.244)" fill="#fff"/>
    <path id="Path_880" data-name="Path 880" d="M-335.726,328.138a3.767,3.767,0,0,1,3.856-3.781,3.769,3.769,0,0,1,3.815,3.9,3.774,3.774,0,0,1-3.859,3.783A3.773,3.773,0,0,1-335.726,328.138Z" transform="translate(340.936 -319.149)" fill="#fff"/>
  </g>
</svg>
