<svg xmlns="http://www.w3.org/2000/svg" width="32.625" height="37.254" viewBox="0 0 32.625 37.254">
  <path id="Path_885" data-name="Path 885" d="M-463.612,195.89q0,14.478.011,28.956a4.911,4.911,0,0,1-1.7,3.9,7.235,7.235,0,0,1-7.142,1.762,3.544,3.544,0,0,1-2.777-2.987,4.115,4.115,0,0,1,.959-3.185,7.464,7.464,0,0,1,4.916-2.758,6.406,6.406,0,0,1,3.381.384V205.678c-.679.134-1.35.265-2.021.4q-8.121,1.625-16.244,3.243c-.306.06-.346.186-.346.453.007,5.76-.023,11.52.021,17.279a5.292,5.292,0,0,1-2.274,4.507,7.758,7.758,0,0,1-3.725,1.521,1.176,1.176,0,0,0-.2.064h-1.383c-.341-.074-.689-.128-1.022-.227a3.831,3.831,0,0,1-2.931-2.643,3.769,3.769,0,0,1,.666-3.31,7.328,7.328,0,0,1,6.82-3.084,12.511,12.511,0,0,1,1.708.351V200.549l1.223-.244q9.775-1.955,19.549-3.912c.767-.154,1.528-.334,2.292-.5Z" transform="translate(496.227 -195.89)" fill="#fff"/>
</svg>
