<svg id="Group_221" data-name="Group 221" xmlns="http://www.w3.org/2000/svg" width="43.961" height="34.255" viewBox="0 0 43.961 34.255">
  <path id="Path_886" data-name="Path 886" d="M-214.507,362.843a89.587,89.587,0,0,1,.871-11.179,28.489,28.489,0,0,1,.933-4.392,11.448,11.448,0,0,1,5.844-6.774A12.039,12.039,0,0,1-201,339.151c1.8.024,3.608,0,5.411.01a.87.87,0,0,0,.711-.28,1.864,1.864,0,0,1,1.378-.572q.9-.013,1.8,0a2.184,2.184,0,0,1,1.459.609.966.966,0,0,0,.581.23c2.3.028,4.6-.066,6.9.072a11.392,11.392,0,0,1,7.416,3.362,11.605,11.605,0,0,1,3.406,6.161A80.182,80.182,0,0,1-170.572,366a11.6,11.6,0,0,1-.459,3.146,4.378,4.378,0,0,1-3.608,3.363,4.687,4.687,0,0,1-3.423-.964,56.055,56.055,0,0,1-7.728-6.672c-.46-.454-.9-.931-1.363-1.376a.739.739,0,0,0-.461-.194q-4.915-.016-9.83,0a.818.818,0,0,0-.494.224c-2.2,2.045-4.351,4.136-6.586,6.138a12.454,12.454,0,0,1-3.786,2.551,4.089,4.089,0,0,1-5.3-2.038,8.492,8.492,0,0,1-.9-4.136C-214.525,364.977-214.507,363.91-214.507,362.843Zm21.7-21.029h-.5c-2.721,0-5.441-.012-8.162.005a9.209,9.209,0,0,0-6.669,2.9,10.647,10.647,0,0,0-2.778,6.451c-.266,2.039-.47,4.087-.658,6.136a62.478,62.478,0,0,0-.234,9.545,6.082,6.082,0,0,0,.443,1.868,1.569,1.569,0,0,0,2.539.832,16.746,16.746,0,0,0,1.888-1.3,64.812,64.812,0,0,0,7.045-6.558,2.887,2.887,0,0,1,2.414-1.055c3.665.07,7.333.025,11,.037a.761.761,0,0,1,.5.206,74.021,74.021,0,0,0,7.529,7.09,24.645,24.645,0,0,0,2.272,1.616,1.485,1.485,0,0,0,2.309-.511,4.681,4.681,0,0,0,.641-2.5,82.25,82.25,0,0,0-1.243-17.038,9.346,9.346,0,0,0-9.2-7.724q-4.081,0-8.162,0h-.543v-.855l-.431.024Z" transform="translate(214.514 -338.302)" fill="#fff"/>
  <path id="Path_887" data-name="Path 887" d="M-191.8,364.613c0-.843,0-1.622,0-2.4,0-.961.418-1.348,1.361-1.4,1.527-.077,1.936.452,1.85,1.862-.038.625-.006,1.254-.006,1.934h2.373c1,0,1.388.39,1.391,1.388,0,.24.008.481-.009.72a1.056,1.056,0,0,1-1.07,1.056c-.765.026-1.532.024-2.3.009-.292-.006-.4.081-.393.381.017.675.011,1.351.006,2.027-.008.967-.411,1.371-1.367,1.384l-.18,0c-1.33.011-1.659-.313-1.658-1.631,0-.7,0-1.4,0-2.157-.793,0-1.539,0-2.286,0-1.147,0-1.5-.359-1.5-1.513,0-.18-.008-.361,0-.54a1.141,1.141,0,0,1,1.164-1.123C-193.57,364.605-192.716,364.613-191.8,364.613Z" transform="translate(202.703 -352.351)" fill="#fff"/>
  <path id="Path_888" data-name="Path 888" d="M-141.9,373.595a1.8,1.8,0,0,1-1.784-1.825,1.846,1.846,0,0,1,1.873-1.8,1.888,1.888,0,0,1,1.772,1.82A1.825,1.825,0,0,1-141.9,373.595Z" transform="translate(170.3 -358.069)" fill="#fff"/>
  <path id="Path_889" data-name="Path 889" d="M-132.777,382.729a1.806,1.806,0,0,1-1.812-1.8,1.847,1.847,0,0,1,1.86-1.811,1.822,1.822,0,0,1,1.779,1.836A1.78,1.78,0,0,1-132.777,382.729Z" transform="translate(164.624 -363.783)" fill="#fff"/>
  <path id="Path_890" data-name="Path 890" d="M-130.952,362.653a1.812,1.812,0,0,1-1.77,1.84,1.833,1.833,0,0,1-1.867-1.753,1.852,1.852,0,0,1,1.757-1.872A1.832,1.832,0,0,1-130.952,362.653Z" transform="translate(164.625 -352.387)" fill="#fff"/>
  <path id="Path_891" data-name="Path 891" d="M-123.662,373.6a1.823,1.823,0,0,1-1.815-1.8,1.886,1.886,0,0,1,1.86-1.822,1.837,1.837,0,0,1,1.777,1.845A1.784,1.784,0,0,1-123.662,373.6Z" transform="translate(158.936 -358.07)" fill="#fff"/>
</svg>
