<svg xmlns="http://www.w3.org/2000/svg" width="33.715" height="34.603" viewBox="0 0 33.715 34.603">
  <g id="Group_220" data-name="Group 220" transform="translate(0)">
    <path id="Path_881" data-name="Path 881" d="M-247.5,351.986a8.53,8.53,0,0,1-10.583-.256,3.47,3.47,0,0,1-.831-.823,2.4,2.4,0,0,0-2.529-1.173c-1.825.088-3.657.039-5.486.024-1.666-.014-2.265-.611-2.266-2.237q-.005-12.151,0-24.3c0-1.647.589-2.232,2.249-2.233q14.6,0,29.2,0c1.7,0,2.267.614,2.264,2.3q-.023,12-.019,24.007c0,1.907-.546,2.461-2.439,2.465-2.254.005-4.508-.018-6.761.021a3.571,3.571,0,0,0-1.1.407,4.928,4.928,0,0,0,.534.843c.789.827,1.606,1.628,2.418,2.432.577.572.722,1.213.105,1.8a1.13,1.13,0,0,1-1.727-.171C-245.475,354.059-246.477,353.031-247.5,351.986Zm3.11-4.593h6.5V329.1h-28.938v18.3h5.9a8.542,8.542,0,0,1,1.959-7.759,8.332,8.332,0,0,1,7.478-2.755C-246.7,337.42-243.78,341.69-244.389,347.393Zm-8.279-8.182a6.1,6.1,0,0,0-6.13,6.052,6.122,6.122,0,0,0,6.164,6.148,6.008,6.008,0,0,0,6.016-6.13A5.951,5.951,0,0,0-252.668,339.211Zm14.819-15.9h-28.959v3.343h28.959Z" transform="translate(269.198 -320.983)" fill="#fff"/>
    <path id="Path_882" data-name="Path 882" d="M-236.493,337.761a1.067,1.067,0,0,1-1.112-1.205,1.091,1.091,0,0,1,1.217-1.128,1.107,1.107,0,0,1,1.128,1.226A1.083,1.083,0,0,1-236.493,337.761Z" transform="translate(243.801 -332.594)" fill="#fff"/>
    <path id="Path_883" data-name="Path 883" d="M-251.3,337.774a1.055,1.055,0,0,1-1.082-1.159,1.076,1.076,0,0,1,1.16-1.175,1.107,1.107,0,0,1,1.178,1.174C-250.04,337.312-250.461,337.752-251.3,337.774Z" transform="translate(255.677 -332.605)" fill="#fff"/>
    <path id="Path_884" data-name="Path 884" d="M-220.469,336.6c-.081.7-.42,1.151-1.183,1.152a1.067,1.067,0,0,1-1.173-1.154,1.107,1.107,0,0,1,1.177-1.178A1.134,1.134,0,0,1-220.469,336.6Z" transform="translate(231.917 -332.593)" fill="#fff"/>
  </g>
</svg>
