<svg id="Group_5627" data-name="Group 5627" xmlns="http://www.w3.org/2000/svg" width="50.488" height="36.087" viewBox="0 0 50.488 36.087">
  <path id="Path_896" data-name="Path 896" d="M443.875,235.642c5.653.266,11.308.5,16.958.813a8.544,8.544,0,0,1,7.694,7.787c.217,3.389.524,6.781.514,10.171-.01,3.2-.292,6.409-.617,9.6a8.484,8.484,0,0,1-7.342,7.031c-3.49.243-6.986.4-10.482.537-2.33.095-4.667.195-7,.129-5.605-.159-11.213-.325-16.81-.661a8.438,8.438,0,0,1-7.664-7.628,80.412,80.412,0,0,1-.51-12.281c.128-2.568.308-5.14.619-7.692a8.54,8.54,0,0,1,7.667-7c5.327-.254,10.658-.435,15.988-.647.325-.013.651-.029.976-.043Zm-.051,34.036c5.613-.263,11.234-.506,16.852-.8a6.3,6.3,0,0,0,5.582-5.124q.447-4.451.629-8.929a90.156,90.156,0,0,0-.5-10.225,6.5,6.5,0,0,0-5.647-5.96c-.872-.068-1.746-.107-2.619-.156-6.081-.341-12.165-.619-18.257-.411q-6.376.217-12.747.556a6.275,6.275,0,0,0-5.707,5.167c-.3,2.777-.5,5.571-.624,8.363a75.85,75.85,0,0,0,.566,11.249,6.344,6.344,0,0,0,5.6,5.465C432.564,269.178,438.184,269.413,443.824,269.678Z" transform="translate(-418.552 -235.642)" fill="#fff"/>
  <path id="Path_897" data-name="Path 897" d="M599.927,341.2q0-2.806,0-5.611c0-1.156.716-1.637,1.763-1.178q6.517,2.858,13.03,5.723a1.126,1.126,0,0,1,.01,2.175q-6.518,2.855-13.029,5.726c-1.036.455-1.772-.036-1.775-1.173Q599.922,344.033,599.927,341.2Zm2.193,4.241,9.607-4.219-9.607-4.215Z" transform="translate(-581.244 -324.084)" fill="#fff"/>
</svg>
