<svg xmlns="http://www.w3.org/2000/svg" width="34.5" height="40.238" viewBox="0 0 34.5 40.238">
  <path id="Path_895" data-name="Path 895" d="M1300.825,73c0-.978-.017-1.923,0-2.867a8.371,8.371,0,0,1,4.438-7.53,8.574,8.574,0,0,1,11.346,2.721,8.44,8.44,0,0,1,1.465,4.791q0,1.357,0,2.715c0,.046,0,.092.009.17h.254q3.433,0,6.867,0a1.406,1.406,0,0,1,1.47,1.193,3.314,3.314,0,0,1-.029.833q-.432,3.947-.875,7.892-.46,4.134-.92,8.268c-.208,1.864-.414,3.727-.629,5.59a5.726,5.726,0,0,1-4.682,4.861,8.329,8.329,0,0,1-1.271.09q-6.9.008-13.794,0-2.056,0-4.112,0a5.713,5.713,0,0,1-5.7-5.034c-.231-1.9-.427-3.806-.64-5.71q-.331-2.964-.663-5.927-.31-2.786-.615-5.572-.269-2.419-.544-4.837A1.441,1.441,0,0,1,1293.7,73q3.434,0,6.867,0Zm17.261,2.889v2.836c.05.01.094.023.139.028a1.437,1.437,0,0,1-.123,2.867q-1.467.024-2.934,0a1.434,1.434,0,0,1-.133-2.86c.171-.022.161-.117.161-.232q0-1.1,0-2.2v-.438h-11.5c0,.93,0,1.841,0,2.752a.567.567,0,0,0,.016.088l.2.029a1.393,1.393,0,0,1,.793.388,1.439,1.439,0,0,1-1.02,2.473q-1.417.01-2.834,0a1.449,1.449,0,0,1-1.463-1.351,1.432,1.432,0,0,1,1.3-1.524,1.081,1.081,0,0,0,.128-.031V75.892h-5.551c0,.033,0,.052,0,.071q.233,2.122.466,4.244.309,2.786.622,5.571.289,2.6.574,5.195c.193,1.738.4,3.475.58,5.214a2.874,2.874,0,0,0,2.912,2.662h8.224q4.941,0,9.881,0a2.832,2.832,0,0,0,2.831-2.38c.1-.6.148-1.214.216-1.822q.251-2.24.5-4.481.23-2.072.461-4.144.249-2.24.5-4.48.231-2.072.462-4.144c.056-.5.109-1,.165-1.511Zm-2.889-2.9v-.226c0-.885,0-1.77,0-2.655a5.626,5.626,0,0,0-.684-2.7,5.747,5.747,0,0,0-10.811,2.664c-.007.912,0,1.823,0,2.735,0,.057.008.115.013.179Z" transform="translate(-1292.196 -61.492)" fill="#fff"/>
</svg>
