<svg xmlns="http://www.w3.org/2000/svg" width="45.146" height="45.146" viewBox="0 0 45.146 45.146">
  <g id="Group_6535" data-name="Group 6535" transform="translate(-20.762 -17)">
    <g id="Group_6533" data-name="Group 6533">
      <g id="Path_1114" data-name="Path 1114" transform="translate(23.762 20)" fill="none" stroke-linecap="round" stroke-linejoin="round">
        <path d="M0,0H14.146V14.146H0Z" stroke="none"/>
        <path d="M 1.9073486328125e-06 1.9073486328125e-06 L 1.9073486328125e-06 14.14648246765137 L 14.14648246765137 14.14648246765137 L 14.14648246765137 1.9073486328125e-06 L 1.9073486328125e-06 1.9073486328125e-06 M 1.9073486328125e-06 -2.999998092651367 L 14.14648246765137 -2.999998092651367 C 15.80333232879639 -2.999998092651367 17.14648246765137 -1.656847953796387 17.14648246765137 1.9073486328125e-06 L 17.14648246765137 14.14648246765137 C 17.14648246765137 15.80333232879639 15.80333232879639 17.14648246765137 14.14648246765137 17.14648246765137 L 1.9073486328125e-06 17.14648246765137 C -1.656847953796387 17.14648246765137 -2.999998092651367 15.80333232879639 -2.999998092651367 14.14648246765137 L -2.999998092651367 1.9073486328125e-06 C -2.999998092651367 -1.656847953796387 -1.656847953796387 -2.999998092651367 1.9073486328125e-06 -2.999998092651367 Z" stroke="none" fill="#4e5165"/>
      </g>
      <g id="Path_1115" data-name="Path 1115" transform="translate(48.762 20)" fill="none" stroke-linecap="round" stroke-linejoin="round">
        <path d="M0,0H14.146V14.146H0Z" stroke="none"/>
        <path d="M 1.9073486328125e-06 1.9073486328125e-06 L 1.9073486328125e-06 14.14648246765137 L 14.14648246765137 14.14648246765137 L 14.14648246765137 1.9073486328125e-06 L 1.9073486328125e-06 1.9073486328125e-06 M 1.9073486328125e-06 -2.999998092651367 L 14.14648246765137 -2.999998092651367 C 15.80333232879639 -2.999998092651367 17.14648246765137 -1.656847953796387 17.14648246765137 1.9073486328125e-06 L 17.14648246765137 14.14648246765137 C 17.14648246765137 15.80333232879639 15.80333232879639 17.14648246765137 14.14648246765137 17.14648246765137 L 1.9073486328125e-06 17.14648246765137 C -1.656847953796387 17.14648246765137 -2.999998092651367 15.80333232879639 -2.999998092651367 14.14648246765137 L -2.999998092651367 1.9073486328125e-06 C -2.999998092651367 -1.656847953796387 -1.656847953796387 -2.999998092651367 1.9073486328125e-06 -2.999998092651367 Z" stroke="none" fill="#4e5165"/>
      </g>
    </g>
    <g id="Group_6534" data-name="Group 6534" transform="translate(0 25)">
      <g id="Path_1114-2" data-name="Path 1114" transform="translate(23.762 20)" fill="none" stroke-linecap="round" stroke-linejoin="round">
        <path d="M0,0H14.146V14.146H0Z" stroke="none"/>
        <path d="M 1.9073486328125e-06 1.9073486328125e-06 L 1.9073486328125e-06 14.14648246765137 L 14.14648246765137 14.14648246765137 L 14.14648246765137 1.9073486328125e-06 L 1.9073486328125e-06 1.9073486328125e-06 M 1.9073486328125e-06 -2.999998092651367 L 14.14648246765137 -2.999998092651367 C 15.80333232879639 -2.999998092651367 17.14648246765137 -1.656847953796387 17.14648246765137 1.9073486328125e-06 L 17.14648246765137 14.14648246765137 C 17.14648246765137 15.80333232879639 15.80333232879639 17.14648246765137 14.14648246765137 17.14648246765137 L 1.9073486328125e-06 17.14648246765137 C -1.656847953796387 17.14648246765137 -2.999998092651367 15.80333232879639 -2.999998092651367 14.14648246765137 L -2.999998092651367 1.9073486328125e-06 C -2.999998092651367 -1.656847953796387 -1.656847953796387 -2.999998092651367 1.9073486328125e-06 -2.999998092651367 Z" stroke="none" fill="#4e5165"/>
      </g>
      <g id="Path_1115-2" data-name="Path 1115" transform="translate(48.762 20)" fill="none" stroke-linecap="round" stroke-linejoin="round">
        <path d="M0,0H14.146V14.146H0Z" stroke="none"/>
        <path d="M 1.9073486328125e-06 1.9073486328125e-06 L 1.9073486328125e-06 14.14648246765137 L 14.14648246765137 14.14648246765137 L 14.14648246765137 1.9073486328125e-06 L 1.9073486328125e-06 1.9073486328125e-06 M 1.9073486328125e-06 -2.999998092651367 L 14.14648246765137 -2.999998092651367 C 15.80333232879639 -2.999998092651367 17.14648246765137 -1.656847953796387 17.14648246765137 1.9073486328125e-06 L 17.14648246765137 14.14648246765137 C 17.14648246765137 15.80333232879639 15.80333232879639 17.14648246765137 14.14648246765137 17.14648246765137 L 1.9073486328125e-06 17.14648246765137 C -1.656847953796387 17.14648246765137 -2.999998092651367 15.80333232879639 -2.999998092651367 14.14648246765137 L -2.999998092651367 1.9073486328125e-06 C -2.999998092651367 -1.656847953796387 -1.656847953796387 -2.999998092651367 1.9073486328125e-06 -2.999998092651367 Z" stroke="none" fill="#4e5165"/>
      </g>
    </g>
  </g>
</svg>
